<?xml version="1.0" encoding="UTF-8" standalone="no"?>
<!-- Created with Inkscape (http://www.inkscape.org/) -->

<svg
   xmlns:dc="http://purl.org/dc/elements/1.1/"
   xmlns:cc="http://creativecommons.org/ns#"
   xmlns:rdf="http://www.w3.org/1999/02/22-rdf-syntax-ns#"
   xmlns:svg="http://www.w3.org/2000/svg"
   xmlns="http://www.w3.org/2000/svg"
   xmlns:xlink="http://www.w3.org/1999/xlink"
   xmlns:sodipodi="http://sodipodi.sourceforge.net/DTD/sodipodi-0.dtd"
   xmlns:inkscape="http://www.inkscape.org/namespaces/inkscape"
   width="490"
   height="490"
   viewBox="0 0 490.00001 490.00001"
   id="svg3368"
   version="1.1"
   inkscape:version="0.91 r13725"
   sodipodi:docname="model.svg"
   inkscape:export-filename="C:\Users\f.gineste\Desktop\Perso\Git\polis\ninja\polisninja-fe\static\polisninja-favicon.png"
   inkscape:export-xdpi="2.9387755"
   inkscape:export-ydpi="2.9387755">
  <defs
     id="defs3370" />
  <sodipodi:namedview
     id="base"
     pagecolor="#ffffff"
     bordercolor="#666666"
     borderopacity="1.0"
     inkscape:pageopacity="0.0"
     inkscape:pageshadow="2"
     inkscape:zoom="0.5"
     inkscape:cx="936.06272"
     inkscape:cy="233.83851"
     inkscape:document-units="px"
     inkscape:current-layer="layer1"
     showgrid="false"
     inkscape:window-width="756"
     inkscape:window-height="411"
     inkscape:window-x="-10"
     inkscape:window-y="597"
     inkscape:window-maximized="0"
     units="px" />
  <metadata
     id="metadata3373">
    <rdf:RDF>
      <cc:Work
         rdf:about="">
        <dc:format>image/svg+xml</dc:format>
        <dc:type
           rdf:resource="http://purl.org/dc/dcmitype/StillImage" />
        <dc:title></dc:title>
      </cc:Work>
    </rdf:RDF>
  </metadata>
  <g
     inkscape:label="Calque 1"
     inkscape:groupmode="layer"
     id="layer1"
     transform="translate(0,-562.36216)">
    <path
       style="fill:#000000;fill-opacity:1"
       d="m 257.47822,1014.5208 c -12.93273,-1.3117 -34.55686,-5.9824 -46.5,-10.0437 -38.73562,-13.17228 -71.89014,-36.53483 -96.98726,-68.3427 -4.5566,-5.775 -8.61553,-10.63067 -9.01985,-10.79037 -2.80732,-1.10889 -4.2925,29.43347 -2.13031,43.80933 0.53612,3.56456 1.28077,10.03266 1.65477,14.37356 l 0.68,7.8926 -3.34867,-1.9966 c -1.84178,-1.0981 -7.36192,-4.3882 -12.26699,-7.3113 -7.32957,-4.368 -16.076837,-10.6505 -20.989307,-15.07499 -0.53995,-0.48632 -0.49188,-1.341 0.11865,-2.10985 0.56445,-0.71081 4.29892,-7.59238 8.29882,-15.29238 7.420727,-14.28525 13.948167,-25.08213 19.169517,-31.70787 2.82111,-3.5799 2.86446,-3.7956 1.25628,-6.25 -0.91612,-1.39817 -2.02351,-2.54213 -2.46086,-2.54213 -1.33799,0 -11.1932,8.13211 -16.315147,13.46258 -13.99381,14.56351 -24.56926,35.73347 -29.04243,58.13724 -0.88946,4.4548 -1.61721,8.3708 -1.61721,8.7021 0,0.3313 -2.1375,-0.4658 -4.75,-1.7712 -2.6125,-1.3054 -9.50293,-4.5984 -15.31207,-7.3177 -5.80914,-2.7192 -12.29228,-6.4633 -14.40698,-8.32 -4.62205,-4.0582 -7.47914,-9.93633 -7.50899,-15.44885 -0.0296,-5.46688 3.52558,-15.74174 7.748,-22.39258 10.71778,-16.88182 37.38696,-33.28216 66.01007,-40.5932 4.152087,-1.06055 7.081537,-2.3104 6.818077,-2.90894 -13.376927,-30.38925 -19.312937,-65.41488 -16.741947,-98.7863 2.1725,-28.19903 8.30928,-50.85145 20.660467,-76.26315 30.31644,-62.37391 91.56474,-106.14087 160.48337,-114.67861 13.29965,-1.64758 40.62522,-1.66005 53,-0.0242 16.25077,2.14824 41.89725,8.70105 51.5,13.1585 1.1,0.51061 5.825,2.68994 10.5,4.84296 42.73509,19.68122 77.77684,54.13696 98.85446,97.20134 13.66574,27.92092 19.84897,53.57938 20.84495,86.5 1.04882,34.66686 -6.12811,66.26198 -22.56018,99.31706 -18.44226,37.09885 -53.24791,71.85057 -90.63923,90.49877 -20.78862,10.36788 -35.61334,15.24178 -61.5,20.21898 -8.22799,1.582 -43.96372,2.8188 -53.5,1.8516 z M 431.28154,883.8844 c 11.72973,-17.8204 22.68358,-45.77253 26.98625,-68.86372 5.73608,-30.78393 -3.4502,-55.29221 -27.28957,-72.80643 -12.17466,-8.94444 -26.54339,-14.96653 -39.5,-16.55487 -2.75,-0.33713 -6.42352,-0.83124 -8.16339,-1.09803 -3.01283,-0.46199 -3.28583,-0.21762 -5.73609,5.13445 -3.06932,6.70428 -11.95859,15.76989 -21.54208,21.96942 -8.56654,5.54166 -25.24809,14.61287 -25.82025,14.04071 -0.24209,-0.2421 0.66917,-1.93223 2.02502,-3.75585 1.35586,-1.82362 4.16942,-6.46568 6.25237,-10.31568 2.08294,-3.85 4.70287,-8.575 5.82206,-10.5 1.54746,-2.66163 -0.10566,-1.45419 -6.90138,5.04075 -16.43159,15.70433 -34.84457,28.96966 -63.26606,45.57902 -8.06861,4.71525 -16.2452,9.49485 -18.1702,10.62134 -2.07503,1.21429 2.80566,-4.32131 11.9879,-13.59647 8.51835,-8.60455 14.98595,-15.64464 14.37244,-15.64464 -0.6135,0 -1.66396,0.66091 -2.33436,1.4687 -2.70348,3.25749 -32.71136,22.5313 -35.07956,22.5313 -3.90224,0 2.78436,-16.07703 12.73138,-30.61088 14.07134,-20.55999 20.66259,-32.38206 18.98793,-34.05672 -0.30035,-0.30035 -4.96051,3.22742 -10.35591,7.83949 -17.55123,15.00306 -24.4151,20.03533 -37.78063,27.69899 l -8.47556,4.8598 9.97318,6.64019 c 5.48526,3.6521 9.95412,7.2002 9.93082,7.88466 -0.0233,0.68446 -0.63078,3.71947 -1.34994,6.74447 l -1.30758,5.5 -3.81413,-0.23911 -3.81414,-0.2391 2.13028,2.26758 c 2.50579,2.66729 5.19788,9.79048 5.19788,13.75345 0,2.91755 -2.97811,10.35283 -5.20454,12.9939 -3.95246,4.68853 -8.19743,6.46328 -15.45932,6.46328 -6.36639,0 -7.6456,-0.33858 -11.49151,-3.04159 -6.06571,-4.26314 -8.80768,-9.50302 -8.82818,-16.87055 -0.0254,-9.13506 5.57787,-17.19302 13.30399,-19.13215 4.69854,-1.17926 3.86275,-2.1746 -3.58063,-4.26416 -11.3264,-3.17963 -30.93016,-8.92451 -34.23981,-10.03397 -1.65,-0.55311 -6.2625,-1.9773 -10.25,-3.16485 -3.9875,-1.18756 -7.25,-2.351 -7.25,-2.58542 0,-1.07355 6.13972,-25.82437 6.58458,-26.54417 0.27612,-0.44676 2.17004,-0.18483 4.20872,0.58208 2.03869,0.7669 10.9067,3.50583 19.7067,6.08652 15.5645,4.56443 22.70934,7.37993 23.99117,9.45397 1.48484,2.40252 4.77653,0.45131 14.09482,-8.35498 9.97395,-9.42592 30.12967,-31.33095 29.66392,-32.23844 -0.48933,-0.95344 -73.57276,-0.32769 -81.09435,0.69434 -19.29183,2.62135 -36.84716,11.00905 -49.94064,23.86094 -10.19405,10.00596 -16.99681,21.82811 -19.66992,34.18329 -1.49828,6.92507 -1.32794,23.52703 0.33725,32.86914 4.06367,22.79818 15.25724,46.96126 27.46672,59.29125 6.915,6.98324 4.77169,7.04719 27.65103,-0.82499 67.04336,-23.06784 129.33872,-27.22155 189.0245,-12.60371 11.48094,2.81184 35.23988,10.42533 42.4755,13.61118 18.63426,8.20467 31.35727,14.05797 32.97251,15.16922 1.08487,0.74638 2.5188,1.35705 3.1865,1.35705 0.6677,0 3.65764,-3.7125 6.64431,-8.25 z M 325.23835,832.67533 c -6.07684,-2.8292 -10.79768,-9.21 -11.77905,-15.9208 -0.69953,-4.78354 1.47511,-11.88015 4.6887,-15.30085 l 2.10218,-2.23767 -3.56529,0.57857 c -3.51165,0.56986 -3.58222,0.51282 -4.68985,-3.79081 -0.6185,-2.40315 -1.47282,-5.48689 -1.89848,-6.85274 -0.88547,-2.84132 -2.13279,-1.91872 24.38166,-18.03442 8.8,-5.34871 17.575,-10.22567 19.5,-10.83768 10.6727,-3.39315 40.48697,-11.19727 41.80488,-10.94276 0.93204,0.18 2.02536,2.28045 2.75781,5.29823 0.66746,2.75 2.16699,8.57154 3.33229,12.93675 1.20725,4.52239 1.72425,8.17906 1.20177,8.5 -0.50432,0.30979 -15.10361,4.36532 -32.44285,9.0123 -17.33924,4.64698 -31.32454,8.77485 -31.07843,9.17306 0.24611,0.39821 1.82573,1.02673 3.51028,1.39672 4.14383,0.91014 9.83058,6.08874 12.04927,10.97259 3.68411,8.10961 1.37785,17.46544 -5.75587,23.34988 -6.9285,5.71515 -15.56553,6.68189 -24.11902,2.69963 z"
       id="path3366"
       inkscape:connector-curvature="0" />
    <path
       style="fill:#024f4f;fill-opacity:1;stroke:none;stroke-width:1px;stroke-linecap:butt;stroke-linejoin:miter;stroke-opacity:1"
       d="m 288.65737,985.56532 c -1.3668,-2.1094 -2.80559,-3.8352 -3.1973,-3.8352 -0.9382,0 -0.91903,-3.3215 0.0246,-4.2652 0.40525,-0.4052 1.1309,-4.8751 1.61254,-9.93296 0.48165,-5.0579 1.15927,-9.8866 1.50584,-10.7303 0.34656,-0.8437 0.8376,-4.1228 1.0912,-7.2868 0.25359,-3.164 0.76858,-7.4786 1.14441,-9.5879 0.37583,-2.1093 1.1652,-6.7958 1.75415,-10.4144 0.58896,-3.61864 1.78563,-7.76061 2.65927,-9.20441 1.20887,-1.9978 1.67666,-4.36635 1.9576,-9.91189 0.40379,-7.97064 1.78715,-11.37523 6.31995,-15.55413 1.27136,-1.1721 2.94102,-2.72534 3.71035,-3.45164 1.08854,-1.02766 2.78979,-1.32055 7.67031,-1.32055 5.33011,0 6.64573,0.2669 8.76438,1.77805 2.32298,1.65689 2.49285,2.08209 2.49285,6.23992 0,2.45403 -0.5792,6.25527 -1.28711,8.4472 -0.87115,2.69734 -1.02624,4.15117 -0.47988,4.49851 0.44398,0.28225 1.06226,1.72126 1.37397,3.1978 0.3117,1.47653 1.21797,4.13262 2.01394,5.90241 0.79596,1.76979 1.44721,3.6815 1.44721,4.24824 0,0.56675 0.6703,2.34522 1.48957,3.95219 0.81926,1.6069 1.70436,3.8996 1.96688,5.0949 0.50454,2.2971 2.29142,4.3084 2.90984,3.2752 0.20164,-0.3369 0.78753,-2.6835 1.30197,-5.2147 0.51443,-2.5312 1.20916,-4.94739 1.54384,-5.36926 0.33468,-0.42187 1.02153,-3.52834 1.52633,-6.90328 0.50481,-3.37494 1.1866,-6.48141 1.5151,-6.90328 1.01719,-1.3063 2.3198,-10.58045 2.32511,-16.554 0.006,-6.35848 0.58998,-7.61943 5.93944,-12.81684 1.79293,-1.74198 3.25988,-3.47487 3.25988,-3.85088 0,-0.63746 4.30777,-5.51335 4.87096,-5.51335 0.14049,0 0.69088,1.46695 1.22309,3.25988 0.53221,1.79294 1.24912,3.60661 1.59313,4.03038 3.01122,3.70945 3.01671,63.74623 0.006,67.49183 -0.34057,0.4238 -1.05777,2.7552 -1.59373,5.1809 -0.53596,2.4257 -1.26472,4.4104 -1.61945,4.4104 -0.35474,0 -0.64498,0.3781 -0.64498,0.8401 0,0.8705 -5.29094,11.9756 -6.35689,13.34236 -0.33229,0.426 -2.14836,2.9319 -4.03571,5.5686 l -3.43155,4.7939 -6.12745,0 c -3.3701,0 -6.12745,-0.2801 -6.12745,-0.6224 0,-0.3423 -0.61705,-1.2915 -1.37121,-2.1093 -1.89484,-2.0548 -5.20806,-8.1385 -6.33167,-11.62606 -0.51391,-1.5952 -1.18698,-3.2455 -1.49569,-3.6674 -0.30872,-0.4219 -0.782,-1.6921 -1.05174,-2.8227 -0.26974,-1.1307 -0.92137,-2.5225 -1.44807,-3.093 -0.5267,-0.5704 -1.64796,-2.4026 -2.4917,-4.0715 -2.43191,-4.8101 -3.70012,-4.3813 -6.88375,2.3275 -1.52791,3.2198 -3.15796,7.8137 -3.62233,10.2086 -0.46437,2.3949 -1.10869,4.69946 -1.43182,5.12136 -0.32313,0.4219 -0.82952,3.2232 -1.12531,6.2252 l -0.53779,5.4581 -4.13882,2.7875 c -5.67183,3.8199 -7.12526,3.6703 -10.18246,-1.0477 z"
       id="path3362"
       inkscape:connector-curvature="0" />
    <path
       style="fill:#024f4f;fill-opacity:1;stroke:none;stroke-width:1px;stroke-linecap:butt;stroke-linejoin:miter;stroke-opacity:1"
       d="m 252.82969,988.51112 c -0.50337,-0.6066 -0.93351,-5.1609 -1.0527,-11.146 -0.16228,-8.14856 0.0141,-10.25426 0.90539,-10.80836 0.90287,-0.5613 0.93822,-1.0584 0.19176,-2.6968 -1.06941,-2.3471 -1.22654,-9.736 -0.22957,-10.7956 0.37708,-0.4008 1.09592,-4.3426 1.59742,-8.7595 0.50149,-4.417 1.22846,-8.6226 1.61548,-9.3457 0.38702,-0.7232 0.70368,-3.236 0.70368,-5.584 0,-3.7577 -0.18375,-4.2691 -1.53406,-4.2691 -0.84374,0 -1.53407,0.3286 -1.53407,0.7301 0,0.8475 -4.62799,5.491 -8.24558,8.2732 -1.37107,1.0545 -2.49285,2.394 -2.49285,2.9768 0,0.5827 -0.25887,1.0599 -0.57528,1.0605 -0.3164,6e-4 -1.77362,2.2236 -3.23827,4.9401 -2.35869,4.3747 -4.68066,6.5643 -6.96098,6.5643 -0.40202,0 -0.73094,-0.4507 -0.73094,-1.0015 0,-0.5508 -0.81658,-2.1083 -1.81461,-3.4611 -0.99804,-1.3528 -2.02812,-4.0172 -2.28906,-5.9209 -0.59782,-4.3617 -3.02221,-11.8076 -4.77443,-14.6636 -4.12729,-6.72727 -7.34777,-11.00333 -8.28704,-11.00333 -1.37478,0 -3.5447,13.43453 -3.5447,21.94623 0,2.6552 -0.33757,5.6205 -0.75016,6.5896 -0.4126,0.969 -1.23739,5.6874 -1.83288,10.4851 -0.59549,4.7978 -1.41735,8.9398 -1.82635,9.2044 -0.409,0.2646 -1.20678,1.7755 -1.77285,3.3575 -0.56607,1.582 -1.26018,2.8764 -1.54247,2.8764 -0.28229,0 -0.93617,1.5104 -1.45305,3.35656 -0.53401,1.9073 -2.39855,5.0241 -4.31835,7.2188 -1.85822,2.1242 -3.37857,4.201 -3.37857,4.6151 0,0.4142 -0.51423,0.9503 -1.14273,1.1915 -0.7896,0.303 -1.2821,-0.205 -1.59373,-1.6438 -0.24806,-1.1452 -0.74878,-2.7725 -1.11271,-3.6163 -0.36394,-0.8437 -1.08243,-4.1228 -1.59665,-7.2868 -0.51422,-3.16396 -1.31139,-6.23736 -1.77148,-6.82986 -1.11905,-1.441 -0.99181,-11.1559 0.16437,-12.549 0.504,-0.6073 1.27777,-5.555 1.7195,-10.9948 0.44173,-5.4398 1.13213,-10.2196 1.53422,-10.6217 0.4021,-0.4021 0.72775,-1.7838 0.72369,-3.0705 -0.009,-2.9348 1.43356,-16.3893 2.31595,-21.5961 0.50966,-3.00737 0.33475,-5.19465 -0.7538,-9.42657 -0.7796,-3.0308 -1.87559,-6.06258 -2.43555,-6.73729 -1.00291,-1.20843 -0.98876,-4.8674 0.0217,-5.61566 0.28485,-0.21093 1.14819,-1.81353 1.91853,-3.56133 l 1.40062,-3.17781 5.26804,-0.29768 c 4.2163,-0.23824 5.58462,-0.63746 6.85368,-1.99964 2.20292,-2.36456 3.21186,-2.169 8.03751,1.55791 l 4.22095,3.25988 0.003,4.63817 c 0.003,4.24932 0.19949,4.79592 2.34754,6.51977 5.81085,4.6633 10.43318,8.86034 12.58212,11.42446 1.2823,1.53005 3.28099,3.80246 4.44152,5.04981 l 2.11007,2.2679 4.79321,-5.04113 c 2.63628,-2.77261 6.25606,-7.6394 8.04396,-10.81508 2.81446,-4.99906 10.00722,-13.66038 11.34422,-13.66038 0.52106,0 5.65238,-4.00328 9.09427,-7.09504 2.41549,-2.16977 4.85933,-2.64477 7.19419,-1.39829 0.73255,0.39107 1.88526,0.87854 2.56161,1.08326 0.99708,0.30181 1.33054,2.09612 1.76273,9.48496 0.54767,9.36335 0.36089,10.73723 -1.90789,14.03276 -0.72608,1.05467 -1.5482,3.80735 -1.82693,6.11708 -0.27874,2.30972 -0.83383,4.59355 -1.23354,5.07517 -0.39972,0.48163 -0.86771,7.04837 -1.03999,14.59277 -0.31084,13.6122 -1.38948,24.5773 -2.70749,27.5236 -0.37744,0.8438 -1.10262,3.3963 -1.61152,5.6722 -0.5089,2.276 -1.39446,5.0373 -1.96791,6.1363 -0.57346,1.0989 -1.04477,2.3337 -1.04737,2.744 -0.005,0.7775 -7.61377,16.32186 -8.64583,17.66286 -0.32469,0.4218 -1.6219,2.2339 -2.8827,4.0269 -2.33845,3.3254 -4.45583,4.112 -6.01421,2.2343 z"
       id="path3364"
       inkscape:connector-curvature="0" />
    <path
       style="opacity:1;fill:#ffe7de;fill-opacity:1;stroke:#ffffff;stroke-width:0.70710677;stroke-opacity:1"
       d="m 421.24654,890.6526 c -4.6636,-2.84388 -32.97463,-15.2953 -42.08046,-18.50733 -39.35517,-13.88231 -69.9522,-18.91283 -110.40143,-18.15135 -39.12393,0.73653 -69.60788,6.44963 -114.20994,21.40449 -8.6467,2.8992 -16.53574,5.27127 -17.53119,5.27127 -3.77239,0 -14.0949,-11.90415 -20.42445,-23.55393 -14.38353,-26.47345 -19.68449,-59.41633 -12.81222,-79.62164 7.24608,-21.30438 26.5813,-39.48177 50.42968,-47.40985 13.24429,-4.4029 13.19432,-4.3987 56.89486,-4.77929 22.07058,-0.19221 40.12831,-0.11997 40.12831,0.16053 0,2.127 -34.53052,37.36019 -38.72802,39.5161 -2.24393,1.15253 -2.3793,1.13757 -4.5962,-0.50792 -1.25628,-0.93248 -4.51155,-2.53598 -7.23391,-3.56332 -7.5469,-2.84798 -35.02068,-11.24774 -37.90758,-11.58976 -2.19785,-0.26038 -2.61742,-0.0725 -3.02172,1.35342 -1.24401,4.38738 -6.0933,24.27685 -6.0933,24.99181 0,0.90649 14.71266,5.69458 39.24443,12.77173 8.9449,2.5805 16.86011,5.01081 17.58936,5.40069 1.13948,0.60918 0.75493,0.94092 -2.7348,2.35926 -4.67817,1.90134 -6.89961,3.77289 -9.20021,7.75108 -4.92533,8.5169 -3.29139,20.42533 3.63723,26.50874 4.64987,4.08265 8.12722,5.18859 15.06955,4.79276 6.83633,-0.38979 10.2936,-1.78047 13.98457,-5.62527 2.91341,-3.03482 5.84847,-10.22231 5.84847,-14.32195 0,-3.55179 -2.1685,-9.97104 -4.27149,-12.64456 -0.76195,-0.96866 -1.38537,-1.94967 -1.38537,-2.18001 0,-0.23034 1.40639,-0.41879 3.12531,-0.41879 l 3.1253,0 1.11734,-4.91257 c 1.74726,-7.68208 1.65992,-8.0243 -2.94853,-11.55347 -2.23622,-1.71252 -6.3728,-4.64158 -9.19239,-6.50903 -2.81958,-1.86746 -5.11518,-3.58734 -5.10131,-3.82196 0.0139,-0.23462 4.22999,-2.89579 9.36916,-5.9137 11.04991,-6.4889 17.75499,-11.36708 32.73828,-23.81821 6.1102,-5.0776 11.41511,-9.232 11.78868,-9.232 2.12898,0 -3.05878,9.4715 -15.63622,28.54768 -13.04061,19.77866 -19.0335,33.40514 -15.31847,34.83073 1.24169,0.47648 9.30356,-4.06177 21.81659,-12.28118 4.99089,-3.27835 9.23845,-5.79653 9.43904,-5.59594 0.20059,0.20059 -4.28061,5.15918 -9.95822,11.01908 -9.60057,9.90883 -11.33265,12.06899 -9.6772,12.06899 0.35514,0 6.84452,-3.64329 14.42085,-8.09621 30.3083,-17.81345 45.64315,-28.53111 62.78826,-43.88331 4.66171,-4.17422 8.63119,-7.43415 8.82106,-7.24428 0.38323,0.38322 -7.22809,14.05816 -10.40405,18.69257 -2.37159,3.46066 -2.43426,3.76168 -0.78313,3.76168 1.5711,0 17.41593,-8.61142 25.50314,-13.86056 8.39674,-5.45006 18.08908,-15.35662 21.59112,-22.06833 l 2.69747,-5.16975 4.00459,0.46038 c 13.29484,1.52844 25.65202,5.35784 35.8244,11.1017 27.81195,15.70411 41.11365,39.45723 38.53459,68.812 -2.12487,24.18518 -16.43137,62.58522 -30.48647,81.82864 -1.91252,2.61851 -3.86935,4.75974 -4.3485,4.75828 -0.47916,-10e-4 -1.84934,-0.59912 -3.04486,-1.32814 z m -76.17192,-57.09248 c 4.95446,-2.35957 9.54683,-7.57759 11.14733,-12.666 2.97224,-9.44953 -1.53259,-19.61937 -10.67109,-24.09043 -2.13399,-1.04406 -3.6102,-2.16806 -3.28048,-2.49778 0.61199,-0.61199 15.36347,-4.86676 44.38027,-12.80059 l 16.26346,-4.44679 -0.0518,-3.87909 c -0.0609,-4.55728 -4.24571,-20.686 -5.88586,-22.68449 -1.11791,-1.36215 -1.27371,-1.34651 -11.38646,1.14296 -5.63918,1.38821 -15.34422,3.95302 -21.56676,5.6996 -10.27045,2.88276 -12.25916,3.7174 -21.56676,9.05139 -13.76972,7.89114 -28.78752,17.24494 -31.31954,19.5073 l -2.06337,1.84362 1.53439,5.27596 c 0.84391,2.90178 1.70629,5.87042 1.9164,6.597 0.32093,1.10983 0.88631,1.26419 3.53639,0.96549 l 3.15439,-0.35555 -1.42626,1.51819 c -3.92594,4.17897 -5.76296,12.46577 -4.04036,18.22603 3.88824,13.00201 18.89468,19.51368 31.3261,13.59318 l -3e-5,0 z"
       id="path3533"
       inkscape:connector-curvature="0" />
    <path
       style="opacity:1;fill:#ffe7de;fill-opacity:1;stroke:#ffffff;stroke-width:0.5;stroke-opacity:1"
       d=""
       id="path3535"
       inkscape:connector-curvature="0" />
    <path
       style="opacity:1;fill:#ffe7de;fill-opacity:1;stroke:#ffffff;stroke-width:0.5;stroke-opacity:1"
       d=""
       id="path3537"
       inkscape:connector-curvature="0" />
    <path
       style="opacity:1;fill:#ffe7de;fill-opacity:1;stroke:#ffffff;stroke-width:0.5;stroke-opacity:1"
       d=""
       id="path3539"
       inkscape:connector-curvature="0" />
    <path
       style="opacity:1;fill:#ffe7de;fill-opacity:1;stroke:#ffffff;stroke-width:0.25;stroke-opacity:1"
       d=""
       id="path3541"
       inkscape:connector-curvature="0" />
    <image
       width="126"
       height="126"
       preserveAspectRatio="none"
       style="image-rendering:optimizeQuality"
       xlink:href="file:///C:/Users/f.gineste/Desktop/Perso/Git/polis_logo.png"
       id="image10"
       x="218"
       y="600.40112" />
  </g>
</svg>
